# xmcd CD database file
#
# Track frame offsets:
#	150
#	21275
#	42332
#	63509
#	86090
#
# Disc length: 1446 seconds
#
# Revision: 0
# Processed by: cddbd v1.5.1PL2 Copyright (c) Steve Scherf et al.
# Submitted via: CDex 1.51
#
DISCID=3d05a405
DTITLE=Dev Large - D.L PRESENTS MUSIC REVOLUTION β
DYEAR=2005
DGENRE=Hip-Hop
TTITLE0=MUSIC
TTITLE1=MUSIC(The Adventures of ORIGINAL MOOGNIST on The Keys)
TTITLE2=MUSIC(Instrumental)
TTITLE3=MUST BE THE MUSIC(Instrumental)
TTITLE4=MUST BE THE MUSIC feat. Brenda and Mellow Tongue Nice
EXTD=YEAR: 2005
EXTT0=
EXTT1=
EXTT2=
EXTT3=
EXTT4=
PLAYORDER=
